<svg xmlns="http://www.w3.org/2000/svg" width="381.74" height="40" viewBox="0 0 439.36 46.74">
    <path id="Tracé_1" data-name="Tracé 1"
          d="M34.32-12.54c0-14.1-20.82-10.8-20.82-18.12,0-2.64,1.86-3.9,4.32-3.84,2.76.06,4.68,1.68,4.86,4.38h11.1c-.42-8.04-6.6-12.6-15.78-12.6-8.82,0-15.36,4.44-15.36,12.42C2.52-15.36,23.58-19.56,23.58-11.76c0,2.46-1.92,3.96-4.92,3.96a4.829,4.829,0,0,1-5.22-4.8H2.52C2.82-4.08,9.9.42,18.96.42,28.8.42,34.32-5.46,34.32-12.54Zm4.26-4.26C38.58-6.24,45.12.48,53.28.48c4.98,0,8.52-2.28,10.38-5.22V0H73.92V-33.48H63.66v4.74c-1.8-2.94-5.34-5.22-10.32-5.22C45.12-33.96,38.58-27.36,38.58-16.8Zm25.08.06c0,5.34-3.42,8.28-7.32,8.28-3.84,0-7.32-3-7.32-8.34s3.48-8.22,7.32-8.22C60.24-25.02,63.66-22.08,63.66-16.74Zm44.88,7.02c-.18-12.48-18.3-8.7-18.3-14.04,0-1.62,1.32-2.58,3.72-2.58,2.88,0,4.62,1.5,4.92,3.78h9.48c-.66-6.6-5.46-11.4-14.1-11.4-8.76,0-13.62,4.68-13.62,10.38,0,12.3,18.24,8.4,18.24,13.8,0,1.5-1.38,2.7-4.02,2.7-2.82,0-4.92-1.56-5.16-3.9H79.56C80.04-4.5,86.04.48,94.98.48,103.38.48,108.54-3.9,108.54-9.72Zm33.48,0c-.18-12.48-18.3-8.7-18.3-14.04,0-1.62,1.32-2.58,3.72-2.58,2.88,0,4.62,1.5,4.92,3.78h9.48c-.66-6.6-5.46-11.4-14.1-11.4-8.76,0-13.62,4.68-13.62,10.38,0,12.3,18.24,8.4,18.24,13.8,0,1.5-1.38,2.7-4.02,2.7-2.82,0-4.92-1.56-5.16-3.9H113.04C113.52-4.5,119.52.48,128.46.48,136.86.48,142.02-3.9,142.02-9.72Z"
          transform="translate(-2.52 46.2)"/>

    <path id="Tracé_2" data-name="Tracé 2"
          d="M2.22-20.94C2.22-8.4,11.76.36,23.52.36c8.7,0,16.2-4.32,19.38-12.48H34.68C32.46-7.68,28.5-5.58,23.52-5.58c-8.28,0-14.28-5.94-14.28-15.36s6-15.3,14.28-15.3c4.98,0,8.94,2.1,11.16,6.54H42.9c-3.18-8.16-10.68-12.54-19.38-12.54C11.76-42.24,2.22-33.42,2.22-20.94Zm80.16,4.38c0-10.38-7.44-17.04-16.86-17.04S48.66-26.94,48.66-16.56,55.8.54,65.22.54C74.7.54,82.38-6.18,82.38-16.56Zm-26.76,0c0-7.5,4.62-11.1,9.78-11.1,5.1,0,9.96,3.6,9.96,11.1S70.32-5.4,65.22-5.4C60.06-5.4,55.62-9.06,55.62-16.56ZM89.16,0H96V-44.4H89.16ZM105,0h6.84V-44.4H105Zm29.76-27.84c5.1,0,9.12,3.24,9.24,8.34H125.7C126.42-24.72,130.14-27.84,134.76-27.84Zm15.48,18h-7.38c-1.26,2.58-3.6,4.62-7.8,4.62a9.094,9.094,0,0,1-9.42-8.76H150.9a21.1,21.1,0,0,0,.24-3.36c0-9.72-6.66-16.26-16.08-16.26-9.78,0-16.5,6.66-16.5,17.04S125.58.54,135.06.54C143.16.54,148.38-4.08,150.24-9.84Zm5.34-6.72c0,10.38,6.72,17.1,16.2,17.1,8.1,0,13.38-4.5,15.24-10.98h-7.38c-1.26,3.42-3.78,5.22-7.86,5.22-5.52,0-9.18-4.08-9.18-11.34,0-7.2,3.66-11.28,9.18-11.28,4.08,0,6.72,2.04,7.86,5.22h7.38c-1.86-6.96-7.14-10.98-15.24-10.98C162.3-33.6,155.58-26.88,155.58-16.56Zm39.36,7.38c0,6.72,3.66,9.18,9.54,9.18h5.4V-5.7h-4.2c-2.88,0-3.84-1.02-3.84-3.48v-18.3h8.04v-5.58h-8.04v-8.22h-6.9v8.22h-3.9v5.58h3.9ZM216.18,0h6.84V-33.06h-6.84Zm3.48-37.44a4.316,4.316,0,0,0,4.32-4.38,4.316,4.316,0,0,0-4.32-4.38,4.329,4.329,0,0,0-4.38,4.38A4.329,4.329,0,0,0,219.66-37.44Zm8.46,4.38L240.66,0h8.16l12.6-33.06h-7.26L244.8-6.12l-9.36-26.94Zm52.38,5.22c5.1,0,9.12,3.24,9.24,8.34h-18.3C272.16-24.72,275.88-27.84,280.5-27.84Zm15.48,18H288.6c-1.26,2.58-3.6,4.62-7.8,4.62a9.094,9.094,0,0,1-9.42-8.76h25.26a21.1,21.1,0,0,0,.24-3.36c0-9.72-6.66-16.26-16.08-16.26-9.78,0-16.5,6.66-16.5,17.04S271.32.54,280.8.54C288.9.54,294.12-4.08,295.98-9.84Z"
          transform="translate(142.48 46.2)"/>
</svg>
