<svg xmlns="http://www.w3.org/2000/svg" width="406.78" height="70" viewBox="0 0 831.84 143.696">
    <path id="Tracé_9" data-name="Tracé 9"
          d="M45.76-16.72C45.76-35.52,18-31.12,18-40.88c0-3.52,2.48-5.2,5.76-5.12,3.68.08,6.24,2.24,6.48,5.84h14.8c-.56-10.72-8.8-16.8-21.04-16.8-11.76,0-20.48,5.92-20.48,16.56C3.36-20.48,31.44-26.08,31.44-15.68c0,3.28-2.56,5.28-6.56,5.28-3.84,0-6.56-2.08-6.96-6.4H3.36C3.76-5.44,13.2.56,25.28.56,38.4.56,45.76-7.28,45.76-16.72Zm5.68-5.68C51.44-8.32,60.16.64,71.04.64,77.68.64,82.4-2.4,84.88-6.32V0H98.56V-44.64H84.88v6.32c-2.4-3.92-7.12-6.96-13.76-6.96C60.16-45.28,51.44-36.48,51.44-22.4Zm33.44.08c0,7.12-4.56,11.04-9.76,11.04-5.12,0-9.76-4-9.76-11.12S70-33.36,75.12-33.36C80.32-33.36,84.88-29.44,84.88-22.32Zm59.84,9.36c-.24-16.64-24.4-11.6-24.4-18.72,0-2.16,1.76-3.44,4.96-3.44,3.84,0,6.16,2,6.56,5.04h12.64c-.88-8.8-7.28-15.2-18.8-15.2-11.68,0-18.16,6.24-18.16,13.84,0,16.4,24.32,11.2,24.32,18.4,0,2-1.84,3.6-5.36,3.6-3.76,0-6.56-2.08-6.88-5.2H106.08C106.72-6,114.72.64,126.64.64,137.84.64,144.72-5.2,144.72-12.96Zm44.64,0c-.24-16.64-24.4-11.6-24.4-18.72,0-2.16,1.76-3.44,4.96-3.44,3.84,0,6.16,2,6.56,5.04h12.64c-.88-8.8-7.28-15.2-18.8-15.2-11.68,0-18.16,6.24-18.16,13.84,0,16.4,24.32,11.2,24.32,18.4,0,2-1.84,3.6-5.36,3.6-3.76,0-6.56-2.08-6.88-5.2H150.72C151.36-6,159.36.64,171.28.64,182.48.64,189.36-5.2,189.36-12.96Z"
          transform="translate(243 93.336)"/>
    <path id="Tracé_10" data-name="Tracé 10"
          d="M2.96-27.92C2.96-11.2,15.68.48,31.36.48c11.6,0,21.6-5.76,25.84-16.64H46.24C43.28-10.24,38-7.44,31.36-7.44c-11.04,0-19.04-7.92-19.04-20.48s8-20.4,19.04-20.4c6.64,0,11.92,2.8,14.88,8.72H57.2C52.96-50.48,42.96-56.32,31.36-56.32,15.68-56.32,2.96-44.56,2.96-27.92Zm106.88,5.84c0-13.84-9.92-22.72-22.48-22.72S64.88-35.92,64.88-22.08,74.4.72,86.96.72C99.6.72,109.84-8.24,109.84-22.08Zm-35.68,0c0-10,6.16-14.8,13.04-14.8,6.8,0,13.28,4.8,13.28,14.8S93.76-7.2,86.96-7.2C80.08-7.2,74.16-12.08,74.16-22.08ZM118.88,0H128V-59.2h-9.12ZM140,0h9.12V-59.2H140Zm39.68-37.12c6.8,0,12.16,4.32,12.32,11.12H167.6C168.56-32.96,173.52-37.12,179.68-37.12Zm20.64,24h-9.84c-1.68,3.44-4.8,6.16-10.4,6.16-6.72,0-11.92-4.4-12.56-11.68H201.2a28.133,28.133,0,0,0,.32-4.48c0-12.96-8.88-21.68-21.44-21.68-13.04,0-22,8.88-22,22.72s9.36,22.8,22,22.8C190.88.72,197.84-5.44,200.32-13.12Zm7.12-8.96c0,13.84,8.96,22.8,21.6,22.8,10.8,0,17.84-6,20.32-14.64h-9.84c-1.68,4.56-5.04,6.96-10.48,6.96-7.36,0-12.24-5.44-12.24-15.12,0-9.6,4.88-15.04,12.24-15.04,5.44,0,8.96,2.72,10.48,6.96h9.84c-2.48-9.28-9.52-14.64-20.32-14.64C216.4-44.8,207.44-35.84,207.44-22.08Zm52.48,9.84C259.92-3.28,264.8,0,272.64,0h7.2V-7.6h-5.6c-3.84,0-5.12-1.36-5.12-4.64v-24.4h10.72v-7.44H269.12V-55.04h-9.2v10.96h-5.2v7.44h5.2ZM288.24,0h9.12V-44.08h-9.12Zm4.64-49.92a5.754,5.754,0,0,0,5.76-5.84,5.754,5.754,0,0,0-5.76-5.84,5.771,5.771,0,0,0-5.84,5.84A5.771,5.771,0,0,0,292.88-49.92Zm11.28,5.84L320.88,0h10.88l16.8-44.08h-9.68L326.4-8.16,313.92-44.08ZM374-37.12c6.8,0,12.16,4.32,12.32,11.12h-24.4C362.88-32.96,367.84-37.12,374-37.12Zm20.64,24H384.8c-1.68,3.44-4.8,6.16-10.4,6.16-6.72,0-11.92-4.4-12.56-11.68h33.68a28.131,28.131,0,0,0,.32-4.48c0-12.96-8.88-21.68-21.44-21.68-13.04,0-22,8.88-22,22.72s9.36,22.8,22,22.8C385.2.72,392.16-5.44,394.64-13.12Z"
          transform="translate(436 93.336)"/>
    <g id="merge" transform="translate(0 -91.429)">
        <path id="Tracé_3" data-name="Tracé 3"
              d="M354.522,161.492A62.227,62.227,0,0,1,256,212.035a62.229,62.229,0,0,0,0-101.086,62.227,62.227,0,0,1,98.523,50.543Z"
              transform="translate(-154.366 -4.727)" fill="#B4FF52"/>
        <g id="Groupe_1" data-name="Groupe 1" transform="translate(3.111 94.54)">
            <circle id="Ellipse_1" data-name="Ellipse 1" cx="62.225" cy="62.225" r="62.225" transform="translate(0 0)"
                    fill="none"/>
            <path id="Tracé_4" data-name="Tracé 4"
                  d="M242.548,179.233a62.144,62.144,0,0,1-25.927,50.543,62.229,62.229,0,0,1,0-101.086A62.146,62.146,0,0,1,242.548,179.233Z"
                  transform="translate(-118.098 -117.008)" fill="none"/>
        </g>
        <path id="Tracé_5" data-name="Tracé 5"
              d="M62.066,222.022a65.873,65.873,0,0,1-6.582-.658l.931-6.152a59.541,59.541,0,0,0,5.957.6Zm6.611,0-.313-6.215a59.546,59.546,0,0,0,5.957-.6l.938,6.152A65.752,65.752,0,0,1,68.677,222.018ZM49,220.043a65.056,65.056,0,0,1-6.318-1.976l2.158-5.836a58.756,58.756,0,0,0,5.712,1.786Zm32.743-.018L80.184,214a58.831,58.831,0,0,0,5.709-1.792l2.164,5.834A65.21,65.21,0,0,1,81.742,220.025ZM36.6,215.458a65.563,65.563,0,0,1-5.786-3.213l3.292-5.28a59.282,59.282,0,0,0,5.235,2.907ZM25.38,208.464a66.115,66.115,0,0,1-5.021-4.308l4.285-4.512a59.826,59.826,0,0,0,4.545,3.9Zm-9.584-9.1a65.963,65.963,0,0,1-4.057-5.226l5.1-3.564a59.746,59.746,0,0,0,3.672,4.73ZM8.229,188.532A65.379,65.379,0,0,1,5.305,182.6l5.714-2.463a59.191,59.191,0,0,0,2.644,5.369ZM3,176.391a65.053,65.053,0,0,1-1.661-6.407l6.1-1.252a58.7,58.7,0,0,0,1.5,5.792ZM.337,163.443c-.222-2.18-.335-4.4-.337-6.6l6.222-.007c0,1.995.1,4.008.3,5.982ZM6.514,150.85l-6.192-.615a65.424,65.424,0,0,1,.987-6.543l6.1,1.239A59.3,59.3,0,0,0,6.514,150.85ZM8.9,139.134l-5.94-1.854a65.094,65.094,0,0,1,2.292-6.211l5.72,2.449A58.992,58.992,0,0,0,8.9,139.134ZM13.6,128.144l-5.442-3.018a65.675,65.675,0,0,1,3.5-5.617l5.109,3.552A59.328,59.328,0,0,0,13.6,128.144Zm6.829-9.821L15.7,114.274a66.132,66.132,0,0,1,4.552-4.8l4.294,4.5A59.576,59.576,0,0,0,20.43,118.322Zm8.658-8.255-3.819-4.913a65.742,65.742,0,0,1,5.422-3.792l3.3,5.273A59.148,59.148,0,0,0,29.088,110.067Zm10.133-6.349-2.753-5.58a65.289,65.289,0,0,1,6.078-2.622l2.17,5.832A59.157,59.157,0,0,0,39.221,103.719Zm52.054-.086a58.95,58.95,0,0,0-5.5-2.353l2.151-5.839a65.221,65.221,0,0,1,6.087,2.6ZM50.423,99.549l-1.565-6.023a65.311,65.311,0,0,1,6.482-1.336l.944,6.15A59.269,59.269,0,0,0,50.423,99.549Zm29.634-.05a59.154,59.154,0,0,0-5.866-1.189l.924-6.153A65.26,65.26,0,0,1,81.6,93.472ZM62.241,97.732l-.32-6.214c2.19-.113,4.422-.117,6.612-.011l-.3,6.216C66.249,97.627,64.226,97.63,62.241,97.732Z"
              transform="translate(0 -0.001)" fill="#231f20"/>
        <path id="Tracé_6" data-name="Tracé 6"
              d="M248.193,91.429A65.5,65.5,0,0,0,218,98.809l2.879,5.516a59.119,59.119,0,1,1,27.312,111.553,58.659,58.659,0,0,1-30.973-8.754A65.335,65.335,0,0,0,213.713,103.7l-1.817-1.307-1.817,1.307a65.34,65.34,0,0,0,0,106.137,65.337,65.337,0,1,0,38.115-118.4Zm-51.822,93.719h31.047a59.526,59.526,0,0,1-4.063,6.413H200.434A59.445,59.445,0,0,1,196.371,185.148Zm31.047-56.765H196.372a59.523,59.523,0,0,1,4.063-6.413h22.922A59.4,59.4,0,0,1,227.419,128.382Zm2.953,6.222a59.253,59.253,0,0,1,2.183,6.413h-41.32a59.364,59.364,0,0,1,2.183-6.413Zm3.556,12.636a58.811,58.811,0,0,1,.7,6.413h-45.46a58.619,58.619,0,0,1,.7-6.413h44.064Zm.7,12.636a58.615,58.615,0,0,1-.7,6.413H189.863a58.815,58.815,0,0,1-.7-6.413Zm-2.07,12.636a59.363,59.363,0,0,1-2.183,6.413H193.419a59.2,59.2,0,0,1-2.183-6.413Zm-20.66-62.4a58.981,58.981,0,0,1,6.253,5.638H205.642A59.059,59.059,0,0,1,211.895,110.109Zm0,93.313a59.014,59.014,0,0,1-6.253-5.638h12.507A59.014,59.014,0,0,1,211.895,203.421Z"
              transform="translate(-110.261 0)"/>
    </g>
    <path id="Tracé_11" data-name="Tracé 11"
          d="M6.048-16.056V-26.64H2.772V0H6.048V-3.636a8.231,8.231,0,0,0,7.38,3.96c5.292,0,9.36-4.14,9.36-10.26,0-6.156-4.032-10.116-9.36-10.116A8.358,8.358,0,0,0,6.048-16.056ZM19.44-9.936c0,4.644-3.06,7.38-6.7,7.38-3.564,0-6.7-2.7-6.7-7.344,0-4.572,3.132-7.308,6.7-7.308C16.38-17.208,19.44-14.58,19.44-9.936Zm10.944-.792c0-4.572,2.376-5.976,5.508-5.976h.864v-3.384c-3.132,0-5.256,1.368-6.372,3.564v-3.2H27.108V0h3.276Zm18.54-6.552c3.384,0,6.264,2.124,6.228,5.976H42.7C43.056-15.156,45.72-17.28,48.924-17.28Zm9.216,11.2H54.612a5.422,5.422,0,0,1-5.544,3.636A6.2,6.2,0,0,1,42.66-8.64H58.428a17.759,17.759,0,0,0,.108-1.98,9.043,9.043,0,0,0-9.468-9.432c-5.76,0-9.756,3.924-9.756,10.152,0,6.264,4.14,10.224,9.756,10.224C53.964.324,57.132-2.484,58.14-6.084Zm3.492-3.852c0,6.12,4.068,10.26,9.324,10.26a8.239,8.239,0,0,0,7.38-4V0h3.312V-19.728H78.336v3.6a8.187,8.187,0,0,0-7.344-3.924C65.7-20.052,61.632-16.092,61.632-9.936Zm16.7.036c0,4.644-3.1,7.344-6.7,7.344s-6.66-2.736-6.66-7.38,3.06-7.272,6.66-7.272S78.336-14.472,78.336-9.9ZM87.192,0h3.276V-8.712L98.208,0h4.464L93.348-9.9l9.288-9.828H98.064l-7.6,8.748V-26.64H87.192Zm21.816-16.092v-3.636h-3.276V9.36h3.276v-13a8.534,8.534,0,0,0,7.38,3.96c5.292,0,9.36-4.14,9.36-10.26,0-6.156-4.068-10.116-9.36-10.116A8.334,8.334,0,0,0,109.008-16.092ZM122.4-9.936c0,4.644-3.06,7.38-6.7,7.38-3.564,0-6.7-2.7-6.7-7.344,0-4.572,3.132-7.308,6.7-7.308C119.34-17.208,122.4-14.58,122.4-9.936Zm26.388.036c0-6.228-4.356-10.152-9.972-10.152-5.58,0-9.972,3.924-9.972,10.152,0,6.264,4.248,10.224,9.828,10.224A9.782,9.782,0,0,0,148.788-9.9Zm-16.6,0c0-4.968,3.132-7.308,6.588-7.308,3.384,0,6.66,2.34,6.66,7.308,0,5-3.348,7.344-6.768,7.344S132.192-4.9,132.192-9.9ZM153.108,0h3.276V-19.728h-3.276ZM154.8-22.932a2.183,2.183,0,0,0,2.16-2.232A2.183,2.183,0,0,0,154.8-27.4a2.2,2.2,0,0,0-2.232,2.232A2.2,2.2,0,0,0,154.8-22.932ZM176.4,0h3.24V-11.628c0-5.652-3.492-8.46-8.064-8.46a7.288,7.288,0,0,0-6.336,3.168v-2.808h-3.276V0h3.276V-10.908c0-4.248,2.3-6.336,5.652-6.336,3.312,0,5.508,2.052,5.508,6.084Zm9.324-5.4c0,3.96,1.98,5.4,5.472,5.4h2.952V-2.772h-2.412C189.72-2.772,189-3.456,189-5.4V-17.028h5.148v-2.7H189V-24.7h-3.276v4.968h-2.556v2.7h2.556Z"
          transform="translate(636 134.336)"/>
</svg>
