<svg xmlns="http://www.w3.org/2000/svg" width="404" height="100" viewBox="0 0 404 100">
    <defs>
        <clipPath id="clip-Taille_personnalisée_18">
            <rect width="404" height="100"/>
        </clipPath>
    </defs>
    <g id="Taille_personnalisée_18" data-name="Taille personnalisée – 18"
       clip-path="url(#clip-Taille_personnalisée_18)">
        <g id="Groupe_2" data-name="Groupe 2" transform="translate(0 -11.396)">
            <path id="Tracé_29" data-name="Tracé 29"
                  d="M23.952-37.417c0-9.131-13.482-6.994-13.482-11.734,0-1.71,1.2-2.525,2.8-2.487A2.952,2.952,0,0,1,16.415-48.8H23.6c-.272-5.206-4.274-8.159-10.219-8.159-5.711,0-9.947,2.875-9.947,8.043C3.36-39.243,17-41.963,17-36.912c0,1.593-1.243,2.564-3.186,2.564a3.127,3.127,0,0,1-3.38-3.108H3.36c.194,5.517,4.779,8.431,10.646,8.431C20.378-29.024,23.952-32.832,23.952-37.417Zm2.759-2.759c0,6.838,4.235,11.19,9.519,11.19a7.666,7.666,0,0,0,6.722-3.38V-29.3H49.6v-21.68H42.952v3.069a7.547,7.547,0,0,0-6.683-3.38C30.946-51.287,26.711-47.013,26.711-40.175Zm16.241.039c0,3.458-2.215,5.362-4.74,5.362-2.487,0-4.74-1.943-4.74-5.4s2.254-5.323,4.74-5.323C40.737-45.5,42.952-43.594,42.952-40.136Zm29.063,4.546c-.117-8.082-11.85-5.634-11.85-9.092,0-1.049.855-1.671,2.409-1.671,1.865,0,2.992.971,3.186,2.448H71.9c-.427-4.274-3.536-7.382-9.131-7.382-5.673,0-8.82,3.031-8.82,6.722,0,7.965,11.811,5.44,11.811,8.936,0,.971-.894,1.748-2.6,1.748-1.826,0-3.186-1.01-3.341-2.525H53.248c.311,4.2,4.2,7.421,9.985,7.421C68.673-28.985,72.014-31.822,72.014-35.591Zm21.68,0c-.117-8.082-11.85-5.634-11.85-9.092,0-1.049.855-1.671,2.409-1.671,1.865,0,2.992.971,3.186,2.448h6.139c-.427-4.274-3.536-7.382-9.131-7.382-5.673,0-8.82,3.031-8.82,6.722,0,7.965,11.812,5.44,11.812,8.936,0,.971-.894,1.748-2.6,1.748-1.826,0-3.186-1.01-3.341-2.525H74.928c.311,4.2,4.2,7.421,9.985,7.421C90.353-28.985,93.695-31.822,93.695-35.591Z"
                  transform="translate(116.29 104.291)"/>
            <path id="Tracé_28" data-name="Tracé 28"
                  d="M2.96-45.243A13.484,13.484,0,0,0,16.753-31.45c5.634,0,10.49-2.8,12.55-8.082H23.98A7.545,7.545,0,0,1,16.753-35.3c-5.362,0-9.247-3.847-9.247-9.947s3.885-9.908,9.247-9.908a7.545,7.545,0,0,1,7.227,4.235H29.3c-2.059-5.284-6.916-8.12-12.55-8.12A13.507,13.507,0,0,0,2.96-45.243Zm51.908,2.836c0-6.722-4.818-11.034-10.918-11.034S33.033-49.128,33.033-42.406s4.624,11.073,10.724,11.073A10.723,10.723,0,0,0,54.868-42.406Zm-17.329,0c0-4.857,2.992-7.188,6.333-7.188,3.3,0,6.45,2.331,6.45,7.188s-3.264,7.227-6.566,7.227C40.415-35.18,37.54-37.55,37.54-42.406ZM59.259-31.683h4.429V-60.434H59.259Zm10.257,0h4.429V-60.434H69.516ZM88.788-49.711c3.3,0,5.906,2.1,5.983,5.4H82.921A5.831,5.831,0,0,1,88.788-49.711ZM98.812-38.055H94.033a5.183,5.183,0,0,1-5.051,2.992,5.889,5.889,0,0,1-6.1-5.673H99.239a13.664,13.664,0,0,0,.155-2.176c0-6.294-4.313-10.529-10.413-10.529-6.333,0-10.685,4.313-10.685,11.034s4.546,11.073,10.685,11.073C94.227-31.333,97.607-34.325,98.812-38.055Zm3.458-4.352c0,6.722,4.352,11.073,10.49,11.073,5.245,0,8.664-2.914,9.869-7.11H117.85a4.889,4.889,0,0,1-5.09,3.38c-3.575,0-5.945-2.642-5.945-7.343,0-4.662,2.37-7.3,5.945-7.3a5,5,0,0,1,5.09,3.38h4.779c-1.2-4.507-4.624-7.11-9.869-7.11C106.621-53.441,102.27-49.089,102.27-42.406Zm25.488,4.779c0,4.352,2.37,5.945,6.178,5.945h3.5v-3.691h-2.72c-1.865,0-2.487-.661-2.487-2.254v-11.85h5.206v-3.613h-5.206v-5.323h-4.468v5.323h-2.525v3.613h2.525Zm13.754,5.945h4.429V-53.091h-4.429Zm2.254-24.245a2.8,2.8,0,0,0,2.8-2.836,2.8,2.8,0,0,0-2.8-2.836,2.8,2.8,0,0,0-2.836,2.836A2.8,2.8,0,0,0,143.766-55.927Zm5.478,2.836,8.12,21.408h5.284l8.159-21.408h-4.7l-6.061,17.445-6.061-17.445Zm33.919,3.38c3.3,0,5.906,2.1,5.983,5.4H177.3A5.831,5.831,0,0,1,183.163-49.711Zm10.024,11.656h-4.779a5.183,5.183,0,0,1-5.051,2.992,5.889,5.889,0,0,1-6.1-5.673h16.357a13.662,13.662,0,0,0,.155-2.176c0-6.294-4.313-10.529-10.413-10.529-6.333,0-10.685,4.313-10.685,11.034s4.546,11.073,10.685,11.073C188.6-31.333,191.983-34.325,193.187-38.055Z"
                  transform="translate(210.23 106.677)"/>
            <g id="merge" transform="translate(0 29.664)">
                <path id="Tracé_3" data-name="Tracé 3"
                      d="M303.849,129.488A30.222,30.222,0,0,1,256,154.036a30.223,30.223,0,0,0,0-49.094,30.222,30.222,0,0,1,47.85,24.547Z"
                      transform="translate(-206.639 -97.757)" fill="#ff9d52"/>
                <g id="Groupe_1" data-name="Groupe 1" transform="translate(1.511 1.511)">
                    <circle id="Ellipse_1" data-name="Ellipse 1" cx="30.221" cy="30.221" r="30.221"
                            transform="translate(0 0)" fill="none"/>
                    <path id="Tracé_4" data-name="Tracé 4"
                          d="M215.878,153.237a30.181,30.181,0,0,1-12.592,24.547,30.223,30.223,0,0,1,0-49.095A30.183,30.183,0,0,1,215.878,153.237Z"
                          transform="translate(-155.436 -123.017)" fill="none"/>
                </g>
                <path id="Tracé_5" data-name="Tracé 5"
                      d="M30.144,154.855a31.994,31.994,0,0,1-3.2-.319l.452-2.988a28.914,28.914,0,0,0,2.893.289Zm3.211,0-.152-3.018a28.916,28.916,0,0,0,2.893-.292l.456,2.988A31.924,31.924,0,0,1,33.355,154.853Zm-9.557-.959a31.6,31.6,0,0,1-3.069-.96l1.048-2.835a28.529,28.529,0,0,0,2.774.867Zm15.9-.009-.757-2.926a28.572,28.572,0,0,0,2.773-.87l1.051,2.833A31.672,31.672,0,0,1,39.7,153.885Zm-21.926-2.218a31.84,31.84,0,0,1-2.81-1.56l1.6-2.564a28.8,28.8,0,0,0,2.542,1.412Zm-5.448-3.4a32.115,32.115,0,0,1-2.439-2.092l2.081-2.192a29.057,29.057,0,0,0,2.208,1.894Zm-4.655-4.419A32.035,32.035,0,0,1,5.7,141.314l2.477-1.731a29.016,29.016,0,0,0,1.784,2.3ZM4,138.59a31.747,31.747,0,0,1-1.42-2.883l2.775-1.2a28.751,28.751,0,0,0,1.284,2.608Zm-2.54-5.9a31.594,31.594,0,0,1-.807-3.112l2.96-.608a28.507,28.507,0,0,0,.729,2.813ZM.164,126.4C.056,125.346,0,124.267,0,123.2l3.022,0c0,.969.051,1.946.148,2.905Zm3-6.116-3.007-.3a31.775,31.775,0,0,1,.479-3.178l2.961.6A28.8,28.8,0,0,0,3.164,120.289ZM4.32,114.6l-2.885-.9a31.616,31.616,0,0,1,1.113-3.016l2.778,1.189A28.651,28.651,0,0,0,4.32,114.6Zm2.285-5.338L3.963,107.8a31.9,31.9,0,0,1,1.7-2.728l2.481,1.725A28.813,28.813,0,0,0,6.606,109.261Zm3.316-4.77-2.295-1.966a32.118,32.118,0,0,1,2.211-2.332l2.085,2.187A28.934,28.934,0,0,0,9.922,104.491Zm4.2-4.009L12.272,98.1a31.93,31.93,0,0,1,2.633-1.842l1.6,2.561A28.725,28.725,0,0,0,14.127,100.482ZM19.048,97.4l-1.337-2.71a31.705,31.705,0,0,1,2.952-1.274l1.054,2.832A28.731,28.731,0,0,0,19.048,97.4Zm25.281-.042a28.633,28.633,0,0,0-2.673-1.143L42.7,93.378a31.673,31.673,0,0,1,2.956,1.264Zm-19.84-1.983-.76-2.925a31.716,31.716,0,0,1,3.148-.649l.459,2.987A28.782,28.782,0,0,0,24.489,95.374Zm14.392-.024a28.722,28.722,0,0,0-2.849-.577l.449-2.988a31.7,31.7,0,0,1,3.15.638Zm-8.653-.858-.155-3.018c1.064-.055,2.148-.057,3.211-.005l-.145,3.019C32.175,94.44,31.193,94.441,30.229,94.491Z"
                      transform="translate(0 -91.43)" fill="#231f20"/>
                <path id="Tracé_6" data-name="Tracé 6"
                      d="M214.589,91.429a31.811,31.811,0,0,0-14.663,3.584l1.4,2.679a28.712,28.712,0,1,1,13.265,54.178,28.489,28.489,0,0,1-15.043-4.252,31.731,31.731,0,0,0-1.7-50.232l-.883-.635-.883.635a31.734,31.734,0,0,0,0,51.548,31.732,31.732,0,1,0,18.512-57.505Zm-25.168,45.516H204.5a28.909,28.909,0,0,1-1.973,3.115H191.393A28.867,28.867,0,0,1,189.421,136.945ZM204.5,109.376H189.421a28.911,28.911,0,0,1,1.973-3.115h11.133A28.852,28.852,0,0,1,204.5,109.376Zm1.434,3.022a28.774,28.774,0,0,1,1.06,3.115H186.926a28.829,28.829,0,0,1,1.06-3.115Zm1.727,6.137A28.563,28.563,0,0,1,208,121.65H185.921a28.476,28.476,0,0,1,.339-3.115Zm.339,6.137a28.469,28.469,0,0,1-.339,3.115h-21.4a28.559,28.559,0,0,1-.339-3.115Zm-1.005,6.137a28.839,28.839,0,0,1-1.06,3.115H187.986a28.753,28.753,0,0,1-1.06-3.115ZM196.96,100.5A28.642,28.642,0,0,1,200,103.239h-6.074A28.686,28.686,0,0,1,196.96,100.5Zm0,45.319a28.658,28.658,0,0,1-3.037-2.738H200A28.655,28.655,0,0,1,196.96,145.82Z"
                      transform="translate(-147.6 -91.429)"/>
            </g>
            <path id="Tracé_27" data-name="Tracé 27"
                  d="M9.105-16.7c-.07-3.427-5.63-2.186-5.63-4.458,0-.769.7-1.329,1.871-1.329a1.843,1.843,0,0,1,2.081,1.661H9.018c-.1-1.871-1.5-3.007-3.619-3.007-2.133,0-3.514,1.206-3.514,2.675,0,3.567,5.665,2.325,5.665,4.458,0,.787-.7,1.416-1.958,1.416-1.346,0-2.168-.7-2.255-1.626H1.692c.1,1.748,1.678,2.972,3.916,2.972C7.724-13.933,9.105-15.122,9.105-16.7Zm2.588-.017c0,1.923.962,2.623,2.658,2.623h1.434v-1.346H14.613c-.979,0-1.329-.332-1.329-1.276v-5.647h2.5v-1.311h-2.5v-2.413H11.693v2.413H10.452v1.311h1.241ZM19.3-19.3c0-2.22,1.154-2.9,2.675-2.9h.42v-1.644A3.227,3.227,0,0,0,19.3-22.116v-1.556H17.707v9.581H19.3Zm4.931,5.21H25.82v-9.581H24.229Zm.822-11.137A1.06,1.06,0,0,0,26.1-26.312,1.06,1.06,0,0,0,25.051-27.4a1.067,1.067,0,0,0-1.084,1.084A1.067,1.067,0,0,0,25.051-25.228Zm5.07,3.322v-1.766H28.53V-9.545h1.591v-6.312a4.145,4.145,0,0,0,3.584,1.923c2.57,0,4.546-2.011,4.546-4.983,0-2.99-1.976-4.913-4.546-4.913A4.047,4.047,0,0,0,30.121-21.906Zm6.5,2.99a3.284,3.284,0,0,1-3.252,3.584A3.288,3.288,0,0,1,30.121-18.9a3.293,3.293,0,0,1,3.252-3.549A3.238,3.238,0,0,1,36.625-18.916Zm16.89-4.756H51.924v5.263c0,2.063-1.1,3.077-2.745,3.077-1.609,0-2.675-1-2.675-2.937v-5.4H44.93v5.612a3.738,3.738,0,0,0,3.934,4.109,3.522,3.522,0,0,0,3.06-1.556v1.416h1.591Zm9.7,9.581h1.574v-5.647c0-2.745-1.7-4.109-3.916-4.109A3.54,3.54,0,0,0,57.8-22.308v-1.364H56.208v9.581H57.8v-5.3c0-2.063,1.119-3.077,2.745-3.077,1.609,0,2.675,1,2.675,2.955Zm4.179,0h1.591v-9.581H67.4Zm.822-11.137a1.06,1.06,0,0,0,1.049-1.084A1.06,1.06,0,0,0,68.219-27.4a1.067,1.067,0,0,0-1.084,1.084A1.067,1.067,0,0,0,68.219-25.228Zm3.829,8.515c0,1.923.962,2.623,2.658,2.623h1.434v-1.346H74.968c-.979,0-1.329-.332-1.329-1.276v-5.647h2.5v-1.311h-2.5v-2.413H72.048v2.413H70.807v1.311h1.241Z"
                  transform="translate(327.861 108.998)"/>
        </g>
    </g>
</svg>
